Coordinates
version=1
nRows=7
nColumns=60
inDegrees=yes

Units are S.I. units (second, meters, Newtons, ...)
If the header above contains a line with 'inDegrees', this indicates whether rotational values are in degrees (yes) or radians (no).

endheader
time	pelvis_tilt	pelvis_list	pelvis_rotation	pelvis_tx	pelvis_ty	pelvis_tz	hip_flexion_r	hip_adduction_r	hip_rotation_r	knee_angle_r_beta	knee_angle_r	ankle_angle_r	subtalar_angle_r	mtp_angle_r	hip_flexion_l	hip_adduction_l	hip_rotation_l	knee_angle_l_beta	knee_angle_l	ankle_angle_l	subtalar_angle_l	mtp_angle_l	L5_S1_Flex_Ext	L5_S1_Lat_Bending	L5_S1_axial_rotation	L4_L5_Flex_Ext	L4_L5_Lat_Bending	L4_L5_axial_rotation	L3_L4_Flex_Ext	L3_L4_Lat_Bending	L3_L4_axial_rotation	L2_L3_Flex_Ext	L2_L3_Lat_Bending	L2_L3_axial_rotation	L1_L2_Flex_Ext	L1_L2_Lat_Bending	L1_L2_axial_rotation	L1_T12_Flex_Ext	L1_T12_Lat_Bending	L1_T12_axial_rotation	Abs_r3	Abs_r2	Abs_r1	Abs_t1	Abs_t2	arm_flex_r	arm_add_r	arm_rot_r	elbow_flex_r	pro_sup_r	wrist_flex_r	wrist_dev_r	arm_flex_l	arm_add_l	arm_rot_l	elbow_flex_l	pro_sup_l	wrist_flex_l	wrist_dev_l
     26.71000000	      2.97001671	     -5.37365808	     93.80814815	      0.40261574	      0.89141630	      0.39108517	     31.11192586	     -3.64651726	     -1.15498866	      0.51167039	    -29.31655377	      5.48073842	      0.00000000	      0.00000000	     34.04854889	     -7.38469758	      2.44743220	      0.53605907	    -30.71392242	      5.80311329	      0.00000000	      0.00000000	    -10.78901905	      0.56515906	      0.38539108	    -20.03628728	      0.75166155	      0.40947803	    -17.72527940	      1.37412774	      0.40947803	    -12.33076987	      1.37412774	      0.33721720	    -10.01868309	      1.15247235	      0.31313025	     -6.16484549	      0.87543138	      0.28904331	    -77.06488418	      6.39319231	      2.14342958	      0.00000000	      0.00000000	     56.91396326	    -23.01150079	     14.99897553	     62.13370370	     68.59982145	      5.51752147	      5.74018935	     65.26269070	    -24.14833876	     28.42654563	     55.61864504	     60.41655841	     13.46905615	      4.57133173
     26.72000000	      2.96857883	     -4.71218065	     93.80294972	      0.40272600	      0.89342384	      0.38937633	     30.07654159	     -3.57621049	     -1.22062769	      0.50518513	    -28.94497566	      5.49149697	      0.00000000	      0.00000000	     33.03741403	     -7.46327646	      2.37192783	      0.53036338	    -30.38758330	      5.87372104	      0.00000000	      0.00000000	    -10.75680925	      0.56273500	      0.36688616	    -19.97647046	      0.74843755	      0.38981655	    -17.67236192	      1.36823388	      0.38981655	    -12.29395729	      1.36823388	      0.32102539	     -9.98877307	      1.14752921	      0.29809501	     -6.14644081	      0.87167652	      0.27516462	    -76.83481280	      6.36577088	      2.04051077	      0.00000000	      0.00000000	     55.16684895	    -23.04136693	     14.43550417	     63.49854015	     68.73424559	      4.12842135	      7.68220450	     63.53620053	    -24.40035221	     27.28715084	     57.08037324	     61.94617219	     12.59194830	      7.14960276
     26.73000000	      2.95132504	     -4.01101284	     93.77334334	      0.40291245	      0.89552710	      0.38755827	     28.94685998	     -3.50978674	     -1.30639969	      0.49707665	    -28.48039402	      5.55274731	      0.00000000	      0.00000000	     31.91746511	     -7.54377232	      2.28051885	      0.52311972	    -29.97255219	      5.98630732	      0.00000000	      0.00000000	    -10.71400933	      0.55483269	      0.35444324	    -19.89698672	      0.73792748	      0.37659595	    -17.60204592	      1.34902020	      0.37659595	    -12.24504126	      1.34902020	      0.31013784	     -9.94902906	      1.13141482	      0.28798514	     -6.12198493	      0.85943583	      0.26583243	    -76.52909722	      6.27637834	      1.97130699	      0.00000000	      0.00000000	     53.41805918	    -23.11803595	     14.03836329	     64.46519594	     68.71138844	      4.04941658	      7.64915550	     62.02198180	    -24.72619878	     26.96338802	     58.03395600	     61.94149168	     12.59398071	      7.10585951
     26.74000000	      2.92432598	     -3.18608991	     93.73561755	      0.40308280	      0.89783294	      0.38568654	     27.69669719	     -3.42642495	     -1.28403928	      0.48972279	    -28.05904918	      5.57711529	      0.00000000	      0.00000000	     30.66106302	     -7.61174720	      2.23331811	      0.51620902	    -29.57659845	      6.07824972	      0.00000000	      0.00000000	    -10.69618539	      0.54768053	      0.34299254	    -19.86388590	      0.72841511	      0.36442957	    -17.57276298	      1.33163045	      0.36442957	    -12.22467029	      1.33163045	      0.30011847	     -9.93247776	      1.11683015	      0.27868144	     -6.11180033	      0.84835715	      0.25724440	    -76.40178265	      6.19547175	      1.90762160	      0.00000000	      0.00000000	     51.61906260	    -23.16382463	     13.42066569	     65.68571623	     68.70143625	      3.91604073	      7.67877532	     60.44902655	    -25.08993666	     26.39705211	     59.28777418	     61.99367763	     12.56715114	      7.06900886
     26.75000000	      2.90580975	     -2.36680898	     93.68246021	      0.40333468	      0.90010290	      0.38373715	     26.46649892	     -3.32873763	     -1.27692181	      0.48298605	    -27.67306249	      5.60517994	      0.00000000	      0.00000000	     29.41057282	     -7.70483642	      2.17149408	      0.50962824	    -29.19954720	      6.16761383	      0.00000000	      0.00000000	    -10.66989275	      0.53591285	      0.32830174	    -19.81505783	      0.71276410	      0.34882060	    -17.52956680	      1.30301851	      0.34882060	    -12.19462043	      1.30301851	      0.28726402	     -9.90806241	      1.09283349	      0.26674516	     -6.09677672	      0.83012901	      0.24622631	    -76.21397693	      6.06235338	      1.82591579	      0.00000000	      0.00000000	     49.83281701	    -23.15716054	     12.85717005	     66.83346255	     68.73102881	      3.72153398	      7.84515550	     58.87310086	    -25.45741125	     25.83733519	     60.46268460	     62.12860787	     12.50556088	      7.09362838
     26.76000000	      2.90728450	     -1.70949076	     93.62616331	      0.40359382	      0.90207486	      0.38176539	     25.41298026	     -3.23689221	     -1.38160136	      0.47602627	    -27.27429601	      5.69734314	      0.00000000	      0.00000000	     28.32102767	     -7.82717343	      1.99942911	      0.50240400	    -28.78562853	      6.32474817	      0.00000000	      0.00000000	    -10.59688454	      0.52534391	      0.30511274	    -19.67947427	      0.69870741	      0.32418228	    -17.40962160	      1.27732119	      0.32418228	    -12.11117934	      1.27732119	      0.26697364	     -9.84026698	      1.07128131	      0.24790410	     -6.05505982	      0.81375772	      0.22883455	    -75.69248655	      5.94279543	      1.69694550	      0.00000000	      0.00000000	     48.13949412	    -23.10853090	     12.62314843	     67.61103785	     68.76195446	      3.60006372	      7.97887848	     57.36409546	    -25.81391038	     25.63300262	     61.14676322	     62.23372823	     12.46979143	      7.12628872
     26.77000000	      2.85082161	     -0.77171163	     93.55554567	      0.40381662	      0.90448733	      0.37964847	     24.04566845	     -3.15406975	     -1.23682059	      0.46973465	    -26.91381307	      5.74170549	      0.00000000	      0.00000000	     26.90344252	     -7.87100447	      1.99451236	      0.49557292	    -28.39423664	      6.44367226	      0.00000000	      0.00000000	    -10.59233241	      0.51080181	      0.28382277	    -19.67102051	      0.67936641	      0.30156169	    -17.40214291	      1.24196353	      0.30156169	    -12.10597671	      1.24196353	      0.24834492	     -9.83603987	      1.04162706	      0.23060600	     -6.05245874	      0.79123201	      0.21286708	    -75.65997114	      5.77829229	      1.57853711	      0.00000000	      0.00000000	     46.36913706	    -23.03431864	     11.86895020	     69.17113583	     69.46679750	      1.43278812	     10.85602479	     55.63650953	    -26.20463460	     24.61692225	     62.75615763	     63.64997833	     11.73500550	      8.52875268
